<?xml version="1.0" standalone="no"?>
<!DOCTYPE svg PUBLIC "-//W3C//DTD SVG 20010904//EN"
 "http://www.w3.org/TR/2001/REC-SVG-20010904/DTD/svg10.dtd">
<svg version="1.0" xmlns="http://www.w3.org/2000/svg"
 width="1024.000000pt" height="1024.000000pt" viewBox="0 0 1024.000000 1024.000000"
 preserveAspectRatio="xMidYMid meet">
<metadata>
Created by potrace 1.14, written by Peter Selinger 2001-2017
</metadata>
<g transform="translate(0.000000,1024.000000) scale(0.100000,-0.100000)"
fill="#000000" stroke="none">
<path d="M4535 8624 c-11 -2 -67 -17 -125 -32 l-105 -27 680 -5 c374 -3 761
-3 860 0 l180 5 -105 30 -105 30 -630 2 c-346 0 -639 -1 -650 -3z"/>
<path d="M5806 8115 c-14 -24 -26 -46 -26 -49 0 -3 163 -6 363 -6 262 0 366 3
375 12 8 8 15 8 27 -2 13 -11 97 -12 443 -7 235 4 527 7 649 7 203 0 222 1
226 18 4 16 5 16 6 0 2 -26 36 -22 53 5 11 17 12 27 3 44 l-12 23 -1041 0
-1040 -1 -26 -44z m224 -14 c0 -6 -4 -13 -10 -16 -5 -3 -10 1 -10 9 0 9 5 16
10 16 6 0 10 -4 10 -9z"/>
<path d="M7935 8149 c-4 -6 -4 -13 0 -17 4 -4 10 -1 12 6 3 6 9 10 14 6 5 -3
9 0 9 5 0 14 -27 14 -35 0z"/>
<path d="M7985 8149 c-11 -17 1 -21 15 -4 8 9 8 15 2 15 -6 0 -14 -5 -17 -11z"/>
<path d="M7962 8095 c-10 -23 -9 -25 11 -25 14 0 26 9 34 25 10 23 9 25 -11
25 -15 0 -27 -9 -34 -25z"/>
<path d="M4300 7594 c-167 -28 -269 -76 -370 -174 l-73 -70 -711 -1 -711 0
-50 -64 -50 -64 -97 0 -98 -1 0 -30 0 -30 75 0 74 0 -22 -24 c-12 -13 -30 -37
-39 -53 l-17 -30 106 -6 c58 -4 152 -7 207 -7 69 0 96 -3 86 -10 -8 -5 -105
-10 -221 -10 l-207 0 -73 -111 -73 -111 -39 6 c-37 6 -45 2 -231 -136 -107
-79 -238 -174 -294 -213 l-100 -70 244 -3 c134 -1 244 -6 244 -10 0 -5 -14
-46 -31 -93 -17 -46 -35 -96 -39 -112 l-9 -27 29 20 c38 27 200 101 200 91 0
-7 -39 -28 -153 -81 -26 -12 -59 -36 -74 -54 l-26 -31 179 -5 c170 -5 173 -6
69 -10 -60 -2 -130 -5 -155 -6 -25 -2 -57 -3 -71 -3 -22 -1 -28 -8 -41 -55
l-15 -54 136 5 c83 3 146 1 161 -5 20 -9 4 -11 -75 -11 -55 -1 -130 -4 -167
-7 l-66 -7 -16 -70 c-20 -88 -20 -90 4 -84 13 3 20 0 20 -9 0 -9 -8 -14 -17
-12 -14 2 -18 -4 -17 -29 0 -32 -9 -43 -19 -23 -3 6 -4 5 -3 -2 2 -7 -1 -23
-5 -35 -5 -14 -4 -23 4 -27 9 -3 9 -6 0 -13 -10 -7 -32 -78 -33 -105 0 -5 123
-8 274 -8 154 0 277 -4 280 -9 4 -5 -88 -10 -221 -10 -286 -1 -343 -7 -343
-32 0 -18 11 -19 190 -19 120 0 190 -4 190 -10 0 -6 -44 -10 -112 -10 -62 0
-150 -3 -195 -6 l-81 -7 -4 -58 c-3 -54 -1 -59 17 -57 37 2 53 -2 59 -17 4
-12 2 -13 -13 -6 -10 6 -27 9 -38 9 -15 -2 -19 -8 -15 -27 3 -19 1 -22 -6 -12
-8 11 -10 9 -10 -10 0 -13 -2 -34 -5 -46 -3 -13 -1 -23 5 -23 7 0 6 -6 -2 -15
-10 -12 -10 -15 3 -15 8 0 18 -6 20 -12 4 -10 8 -9 16 2 9 13 11 13 11 -1 0
-9 -7 -19 -15 -23 -8 -3 -15 0 -15 6 0 19 -20 -5 -25 -30 -4 -24 5 -28 23 -10
9 9 12 8 12 -5 0 -10 -8 -17 -19 -17 -17 0 -18 -11 -20 -142 l-2 -142 21 19
c24 22 31 18 23 -13 -3 -13 -13 -22 -24 -22 -24 0 -25 -35 -1 -49 9 -6 11 -11
5 -11 -15 0 -18 -40 -3 -40 6 0 10 -10 9 -22 0 -22 -1 -22 -9 -3 -8 19 -9 19
-9 -2 -1 -23 0 -23 147 -24 81 -1 190 -5 242 -9 85 -6 76 -7 -90 -8 -102 -1
-209 -5 -237 -8 l-53 -7 0 -38 c0 -30 4 -39 18 -40 9 -1 26 -3 37 -4 11 -1 41
-2 68 -3 80 -3 53 -22 -31 -22 -43 0 -81 -2 -84 -5 -2 -3 -2 -24 1 -47 l6 -43
135 3 c95 2 131 0 120 -7 -8 -6 -40 -11 -70 -11 -54 0 -169 -15 -177 -24 -7
-6 45 -252 78 -371 90 -322 268 -698 445 -940 l59 -80 6 -200 c6 -212 16 -268
71 -401 42 -101 124 -218 209 -298 215 -202 456 -227 738 -75 42 22 95 56 118
75 23 19 43 34 46 34 3 0 31 -16 63 -35 32 -19 65 -35 75 -35 9 0 23 -7 30
-17 15 -18 233 -123 255 -123 19 0 18 3 -11 46 -34 50 -32 63 4 25 39 -42 90
-43 119 -4 31 43 37 20 7 -27 -23 -37 -29 -41 -56 -35 -33 7 -40 -8 -10 -24
14 -8 38 -3 97 18 44 15 89 33 101 39 18 10 28 9 55 -7 50 -29 137 -44 209
-37 35 3 72 6 82 7 9 0 17 7 17 15 0 12 4 13 21 3 12 -6 19 -7 15 -1 -3 5 16
17 42 25 46 15 47 15 25 -3 -13 -10 -23 -22 -23 -27 0 -4 -28 -19 -62 -33 -87
-34 -249 -36 -320 -4 -33 16 -49 19 -57 11 -6 -6 -35 -18 -64 -27 l-52 -16 95
-32 c64 -21 98 -28 106 -21 14 11 67 1 59 -11 -8 -13 16 -17 105 -17 110 0
255 40 221 61 -14 9 -14 26 -1 26 6 0 10 -6 10 -14 0 -19 18 -24 58 -18 29 4
32 2 32 -23 0 -21 -4 -26 -16 -21 -9 4 -24 0 -33 -8 -9 -8 -38 -23 -65 -34
-57 -22 -50 -31 29 -39 40 -4 55 -2 55 6 0 8 6 6 17 -4 12 -13 26 -15 52 -11
20 3 56 6 81 6 l45 1 -78 30 c-70 28 -78 34 -73 53 3 11 6 26 6 32 0 7 15 4
39 -8 56 -28 131 -46 221 -54 l77 -6 16 30 c14 30 14 32 -5 38 -15 4 -17 9 -9
17 16 16 39 -19 33 -50 -4 -23 -3 -24 49 -18 30 4 87 18 128 32 l73 25 77 -36
c100 -46 152 -57 286 -57 99 0 286 28 318 48 4 3 -14 20 -40 39 -60 42 -50 45
14 3 38 -24 55 -29 83 -25 41 7 164 46 271 87 65 25 76 33 72 49 -3 11 0 20 6
20 6 0 11 -7 11 -15 0 -8 4 -15 9 -15 14 0 275 135 318 165 33 22 35 25 13 22
-38 -6 -133 19 -214 56 -69 32 -73 33 -104 19 -18 -9 -32 -19 -32 -24 0 -4 -9
-8 -20 -8 -10 0 -29 -10 -41 -22 -12 -13 -23 -18 -26 -12 -4 11 -109 2 -121
-11 -11 -11 35 -42 73 -49 37 -7 82 12 132 57 13 11 26 17 30 13 4 -4 0 -12
-11 -18 -10 -5 -28 -21 -39 -35 -32 -37 -75 -56 -109 -49 -38 8 -85 41 -93 66
-9 28 -25 25 -25 -5 0 -14 -4 -25 -10 -25 -5 0 -10 11 -10 24 0 21 -6 25 -47
31 -27 3 -78 20 -114 37 -63 28 -68 29 -96 14 -17 -8 -51 -20 -77 -27 l-47
-12 38 -17 c49 -23 80 -47 71 -55 -4 -4 -22 2 -40 13 -61 37 -92 37 -159 2
-34 -17 -63 -29 -66 -26 -3 3 22 23 55 44 l61 39 -67 6 c-37 4 -88 14 -113 23
-56 20 -151 83 -157 104 -3 10 4 7 20 -7 34 -32 132 -70 201 -78 54 -7 59 -6
64 14 6 25 25 29 21 4 -3 -14 4 -17 42 -14 25 1 79 14 120 27 l74 25 61 -29
c33 -16 84 -33 113 -37 49 -6 52 -6 52 15 0 12 4 18 10 15 6 -4 8 -10 5 -15
-9 -14 26 -21 79 -14 62 8 81 17 81 40 0 9 6 19 13 21 6 3 12 -2 12 -11 0 -22
10 -20 77 10 l58 25 42 -21 c35 -17 45 -19 61 -9 17 11 18 15 6 26 -15 15 -20
48 -6 39 4 -2 14 0 22 6 13 8 12 9 -2 5 -9 -3 -24 1 -35 8 -17 14 -17 14 2 15
11 1 14 4 8 7 -7 2 -13 13 -13 24 0 10 -7 19 -15 19 -8 0 -15 5 -15 10 0 6 5
10 11 10 5 0 7 4 4 10 -3 5 0 19 8 31 15 20 15 20 37 -11 12 -17 19 -37 16
-45 -3 -8 0 -12 7 -9 7 2 21 -10 31 -28 11 -18 32 -50 48 -70 17 -22 26 -43
22 -50 -4 -7 -4 -10 1 -6 4 4 39 -22 78 -58 182 -172 432 -267 619 -236 212
35 398 201 511 456 63 141 69 171 74 385 5 176 7 196 25 215 28 30 188 272
188 285 0 6 -4 11 -10 11 -5 0 -10 5 -10 10 0 6 9 10 19 10 29 0 35 18 9 23
-22 4 -22 4 -2 6 12 0 27 7 33 15 12 14 61 104 61 111 0 3 -69 6 -152 7 l-153
3 -3 33 -3 32 63 0 c35 0 69 5 75 11 8 8 13 8 17 0 5 -7 45 -11 102 -11 l95 0
14 32 c7 18 11 36 9 40 -3 5 -1 8 4 8 8 0 32 51 32 66 0 2 -12 4 -26 4 -19 0
-25 4 -22 18 2 9 10 16 16 14 8 -1 10 6 6 22 -6 24 10 44 21 26 3 -5 14 -10
25 -10 13 0 23 14 34 47 9 26 16 48 16 50 0 2 -13 3 -30 3 -16 0 -30 -4 -30
-10 0 -5 7 -10 16 -10 9 0 14 -5 12 -12 -8 -24 -26 -18 -36 12 -9 23 -17 30
-34 29 -13 -1 -103 -1 -201 -1 l-178 2 3 28 3 27 153 3 c123 2 152 5 152 17 0
7 5 17 11 21 8 4 9 0 4 -15 -6 -19 -3 -21 43 -21 80 0 140 11 147 27 4 12 0
14 -15 10 -12 -3 -20 0 -20 7 0 7 10 12 22 12 19 -1 25 10 45 79 12 44 20 86
17 94 -2 8 0 17 6 21 7 4 14 27 17 51 5 36 3 42 -8 32 -15 -15 -29 -17 -29 -4
0 5 9 11 20 14 23 6 35 34 45 100 l7 47 -112 0 c-79 0 -111 3 -108 11 3 8 37
11 103 10 55 -1 105 2 112 6 6 5 14 25 18 46 l7 37 -88 1 c-49 1 -127 4 -174
8 l-85 8 130 3 c72 2 136 3 143 3 6 -1 12 8 12 18 0 10 5 19 10 19 6 0 10 -7
10 -15 0 -20 36 -19 44 1 3 9 6 29 6 45 l0 29 -247 2 c-230 1 -238 2 -113 9
74 3 185 7 247 8 l112 1 5 33 c17 114 17 117 -4 117 -26 0 -26 26 0 33 18 5
20 13 20 79 0 51 -3 68 -10 58 -8 -13 -10 -12 -10 3 0 9 5 17 10 17 15 0 11
153 -4 163 -8 5 -8 9 0 15 6 4 11 37 11 75 0 47 -4 64 -11 57 -20 -20 -28 -9
-11 16 17 26 17 27 -4 21 -11 -3 -21 -1 -21 5 0 5 9 12 21 15 17 5 20 11 15
36 -3 16 -6 42 -6 58 l0 29 -187 0 c-102 0 -184 3 -180 6 3 3 22 6 42 6 31 0
34 2 23 16 -11 13 -10 14 8 4 19 -10 96 -14 227 -13 l58 1 -3 33 c-3 31 -5 32
-63 40 -33 4 -103 6 -155 3 -52 -3 -153 -7 -225 -10 -121 -4 -124 -4 -35 4 52
4 176 13 275 19 99 6 183 15 187 19 4 4 1 19 -6 34 -10 20 -11 29 -2 38 8 9 8
14 0 16 -6 3 -9 19 -7 37 3 24 2 28 -6 17 -8 -12 -13 -12 -22 -3 -10 10 -9 14
4 19 21 8 22 34 2 34 -8 0 -15 8 -16 18 0 10 -3 12 -6 5 -6 -18 -23 -16 -23 1
0 21 23 25 37 7 21 -28 20 -8 -1 79 l-21 85 -180 5 c-217 6 -206 20 16 20 99
0 159 4 159 10 0 6 -25 10 -55 10 -30 0 -55 5 -55 10 0 6 22 10 49 10 49 0 49
0 42 28 l-7 27 -179 3 c-100 1 -184 7 -189 12 -7 7 54 10 172 10 107 0 182 4
182 9 0 14 -57 183 -80 237 -11 25 -20 47 -20 50 0 2 100 5 222 6 l222 3 -81
48 c-61 36 -90 47 -122 47 -50 0 -76 12 -109 51 -19 23 -32 29 -63 29 -36 0
-40 3 -64 50 -36 71 -87 123 -148 153 -59 29 -131 52 -157 50 -22 -2 -37 46
-19 58 7 4 16 6 20 3 4 -2 10 2 12 8 3 7 6 0 6 -16 1 -34 9 -31 15 5 2 13 9
23 15 22 6 -2 11 2 11 7 0 6 -7 10 -15 10 -8 0 -15 5 -15 11 0 5 -4 7 -10 4
-5 -3 -10 1 -10 10 0 9 4 14 9 10 6 -3 15 4 21 15 10 18 9 19 -14 8 -20 -8
-29 -8 -40 1 -17 14 -40 5 -30 -11 4 -7 2 -8 -4 -4 -8 5 -12 0 -12 -12 0 -23
-20 -34 -73 -38 l-39 -4 7 33 c4 17 13 39 20 47 11 12 11 18 1 32 -11 14 -33
18 -132 20 l-119 3 100 8 c55 4 108 12 118 18 11 6 23 7 30 1 16 -11 109 -3
101 9 -3 6 5 7 22 3 19 -5 25 -3 20 4 -9 14 -76 33 -89 25 -6 -3 -7 -1 -3 5 4
7 3 12 -3 12 -5 0 -12 -4 -15 -9 -8 -13 -56 -20 -62 -9 -11 18 14 32 31 18 12
-10 15 -10 15 3 0 11 9 15 33 13 21 -1 31 -6 29 -15 -2 -10 5 -12 27 -8 16 4
124 7 238 8 114 1 240 5 278 8 65 6 70 8 69 29 -1 12 4 22 11 22 7 0 15 7 18
14 4 11 1 13 -11 10 -9 -3 -6 2 8 11 l25 16 -27 -4 c-15 -2 -29 1 -31 6 -2 6
-9 7 -15 3 -17 -10 -15 -26 3 -20 8 4 15 2 15 -4 0 -13 -26 -23 -44 -16 -8 3
-12 13 -9 23 4 15 -1 17 -27 13 -17 -2 -34 -11 -37 -18 -3 -8 -10 -14 -15 -14
-6 0 -5 6 2 15 11 13 -18 15 -252 15 l-265 0 -42 60 -42 59 -1516 1 -1516 0
-71 68 c-74 70 -174 129 -263 155 -54 16 -190 28 -233 21z m3480 -328 c0 -10
-32 -36 -43 -36 -7 0 -1 9 13 20 26 21 30 23 30 16z m798 -100 c-7 -8 -15 -12
-17 -11 -5 6 10 25 20 25 5 0 4 -6 -3 -14z m37 -24 c-3 -3 -11 0 -18 7 -9 10
-8 11 6 5 10 -3 15 -9 12 -12z m-705 -142 c0 -5 -7 -10 -15 -10 -8 0 -15 5
-15 10 0 6 7 10 15 10 8 0 15 -4 15 -10z m-11 -151 c-24 -14 -36 11 -14 27 18
13 20 13 23 -2 2 -9 -2 -20 -9 -25z m121 -24 c0 -8 6 -15 13 -16 6 -1 -4 -5
-23 -9 -19 -5 -36 -7 -37 -6 -1 1 4 12 13 24 18 25 34 29 34 7z m-259 -232
l-11 -28 -813 3 c-2296 7 -2154 5 -2176 27 l-21 20 118 -3 c64 -1 745 1 1512
5 767 5 1397 7 1399 6 2 -1 -1 -15 -8 -30z m-804 -174 c-14 -8 -22 -8 -30 0
-8 8 -3 11 19 11 25 -1 27 -2 11 -11z m-4037 -69 c-38 -12 -990 -12 -990 0 0
7 175 10 508 9 279 -1 496 -5 482 -9z m5440 0 c0 -13 -826 -13 -855 0 -12 5
164 9 418 9 285 1 437 -2 437 -9z m-6140 -311 c0 -5 -7 -9 -15 -9 -15 0 -20
12 -9 23 8 8 24 -1 24 -14z m6190 -49 c0 -5 -6 -10 -14 -10 -8 0 -18 5 -21 10
-3 6 3 10 14 10 12 0 21 -4 21 -10z m-6282 -82 c249 -2 232 -6 -41 -10 -181
-3 -187 -2 -186 17 0 11 3 14 6 8 3 -10 59 -13 221 -15z m6216 -6 c-5 -4 -112
-5 -239 -2 l-230 6 233 2 c177 2 232 5 233 15 0 9 2 8 6 -1 3 -8 1 -17 -3 -20z
m-6147 -104 c-3 -8 -6 -5 -6 6 -1 11 2 17 5 13 3 -3 4 -12 1 -19z m103 6 c0
-8 -19 -13 -24 -6 -3 5 1 9 9 9 8 0 15 -2 15 -3z m5760 -4 c0 -5 -2 -10 -4
-10 -3 0 -8 5 -11 10 -3 6 -1 10 4 10 6 0 11 -4 11 -10z m-5670 -15 c0 -8 -2
-15 -4 -15 -2 0 -6 7 -10 15 -3 8 -1 15 4 15 6 0 10 -7 10 -15z m6100 11 c0
-3 -4 -8 -10 -11 -5 -3 -10 -1 -10 4 0 6 5 11 10 11 6 0 10 -2 10 -4z m-610
-16 c0 -5 -4 -10 -10 -10 -5 0 -10 5 -10 10 0 6 5 10 10 10 6 0 10 -4 10 -10z
m-6100 -10 c0 -5 19 -11 43 -11 32 -2 35 -3 13 -6 -35 -6 -76 4 -76 17 0 6 5
10 10 10 6 0 10 -4 10 -10z m568 -15 c-3 -3 -9 2 -12 12 -6 14 -5 15 5 6 7 -7
10 -15 7 -18z m5592 5 c0 -5 -4 -10 -10 -10 -5 0 -10 5 -10 10 0 6 5 10 10 10
6 0 10 -4 10 -10z m540 -6 c0 -2 -19 -3 -42 -3 -39 1 -41 2 -13 8 28 7 55 4
55 -5z m-6040 2 c0 -3 -4 -8 -10 -11 -5 -3 -10 -1 -10 4 0 6 5 11 10 11 6 0
10 -2 10 -4z m5380 -6 c0 -5 -2 -10 -4 -10 -3 0 -8 5 -11 10 -3 6 -1 10 4 10
6 0 11 -4 11 -10z m-5923 -6 c-3 -3 -12 -4 -19 -1 -8 3 -5 6 6 6 11 1 17 -2
13 -5z m1113 -18 c0 -11 -19 -15 -25 -6 -3 5 1 10 9 10 9 0 16 -2 16 -4z
m-780 -30 c0 -3 -4 -8 -10 -11 -5 -3 -10 -1 -10 4 0 6 5 11 10 11 6 0 10 -2
10 -4z m-425 -36 c3 -5 -1 -10 -9 -10 -9 0 -16 5 -16 10 0 6 4 10 9 10 6 0 13
-4 16 -10z m520 0 c3 -5 2 -10 -4 -10 -5 0 -13 5 -16 10 -3 6 -2 10 4 10 5 0
13 -4 16 -10z m6155 -10 c0 -5 -4 -10 -10 -10 -5 0 -10 5 -10 10 0 6 5 10 10
10 6 0 10 -4 10 -10z m-5839 -14 c5 3 9 -2 9 -10 0 -10 -6 -13 -15 -10 -8 4
-15 1 -15 -5 0 -6 -4 -11 -10 -11 -14 0 -12 24 2 38 8 8 14 9 16 2 2 -5 8 -8
13 -4z m-194 -28 c-3 -8 -6 -5 -6 6 -1 11 2 17 5 13 3 -3 4 -12 1 -19z m1003
-60 c0 -37 -4 -57 -10 -53 -5 3 -10 28 -10 55 0 49 -9 60 -50 60 -10 0 -21 4
-24 8 -3 5 17 5 44 -1 l50 -10 0 -59z m4025 67 c23 -5 25 -10 25 -60 0 -70
-18 -72 -22 -2 -3 50 -4 52 -33 55 -16 2 -34 8 -40 13 -7 7 -1 8 18 5 15 -3
38 -8 52 -11z m-4707 -2 c-27 -4 -28 -7 -28 -59 0 -30 -4 -54 -10 -54 -6 0
-10 27 -10 60 l0 60 38 -1 c30 -2 32 -3 10 -6z m4040 0 c-27 -4 -28 -7 -28
-59 0 -30 -4 -54 -10 -54 -11 0 -14 103 -3 113 3 4 20 6 37 6 30 -2 30 -2 4
-6z m1399 -45 c-3 -7 -5 -2 -5 12 0 14 2 19 5 13 2 -7 2 -19 0 -25z m-6250 0
c-3 -8 -6 -5 -6 6 -1 11 2 17 5 13 3 -3 4 -12 1 -19z m73 10 c0 -7 -5 -20 -10
-28 -8 -12 -10 -9 -10 13 0 15 5 27 10 27 6 0 10 -6 10 -12z m6140 -13 c0 -8
-4 -15 -10 -15 -5 0 -10 7 -10 15 0 8 5 15 10 15 6 0 10 -7 10 -15z m90 -12
c0 -19 -3 -24 -10 -17 -6 6 -8 18 -4 27 9 24 14 21 14 -10z m-6190 7 c0 -5 -2
-10 -4 -10 -3 0 -8 5 -11 10 -3 6 -1 10 4 10 6 0 11 -4 11 -10z m100 -6 c0 -8
-4 -12 -10 -9 -5 3 -10 10 -10 16 0 5 5 9 10 9 6 0 10 -7 10 -16z m5930 6 c0
-5 -4 -10 -10 -10 -5 0 -10 5 -10 10 0 6 5 10 10 10 6 0 10 -4 10 -10z m406
-97 c-10 -10 -19 5 -10 18 6 11 8 11 12 0 2 -7 1 -15 -2 -18z m-137 0 c0 -11
-3 -13 -6 -5 -2 6 -9 10 -14 6 -5 -3 -9 0 -9 5 0 6 7 11 15 11 8 0 15 -8 14
-17z m-566 -32 c38 -15 92 -76 105 -120 19 -62 17 -2647 -2 -2761 -35 -209
-137 -394 -281 -508 -148 -116 -278 -146 -448 -102 -186 47 -342 160 -469 340
-93 133 -332 528 -372 618 l-19 42 -1213 0 -1213 0 -47 -87 c-58 -107 -156
-270 -278 -463 -172 -274 -334 -405 -560 -455 -180 -40 -330 11 -480 163 -32
33 -72 79 -88 103 -49 72 -106 198 -130 289 l-23 85 0 1345 c0 740 4 1362 8
1383 10 47 69 114 111 126 44 12 5367 14 5399 2z m537 -31 c0 -5 -7 -10 -16
-10 -8 0 -12 5 -9 10 3 6 10 10 16 10 5 0 9 -4 9 -10z m-6230 -86 c0 -8 -4
-12 -10 -9 -5 3 -10 10 -10 16 0 5 5 9 10 9 6 0 10 -7 10 -16z m21 -17 c-8 -8
-11 -7 -11 4 0 20 13 34 18 19 3 -7 -1 -17 -7 -23z m39 18 c0 -8 -4 -15 -10
-15 -5 0 -10 7 -10 15 0 8 5 15 10 15 6 0 10 -7 10 -15z m5980 -5 c0 -18 -3
-19 -20 -8 -14 9 -16 14 -7 20 20 13 27 9 27 -12z m-5933 -12 c-3 -8 -6 -5 -6
6 -1 11 2 17 5 13 3 -3 4 -12 1 -19z m5813 1 c0 -6 -4 -7 -10 -4 -5 3 -10 11
-10 16 0 6 5 7 10 4 6 -3 10 -11 10 -16z m70 11 c0 -5 -4 -10 -10 -10 -5 0
-10 5 -10 10 0 6 5 10 10 10 6 0 10 -4 10 -10z m-6375 -20 c3 -5 1 -10 -4 -10
-6 0 -11 5 -11 10 0 6 2 10 4 10 3 0 8 -4 11 -10z m315 -14 c0 -3 -4 -8 -10
-11 -5 -3 -10 -1 -10 4 0 6 5 11 10 11 6 0 10 -2 10 -4z m6510 -56 c0 -5 -2
-10 -4 -10 -3 0 -8 5 -11 10 -3 6 -1 10 4 10 6 0 11 -4 11 -10z m-6763 -22
c-3 -8 -6 -5 -6 6 -1 11 2 17 5 13 3 -3 4 -12 1 -19z m6697 1 c-8 -14 -24 -10
-24 6 0 9 6 12 15 9 8 -4 12 -10 9 -15z m-6744 -9 c0 -5 -4 -10 -10 -10 -5 0
-10 5 -10 10 0 6 5 10 10 10 6 0 10 -4 10 -10z m6580 -36 c0 -14 -3 -14 -15
-4 -8 7 -15 14 -15 16 0 2 7 4 15 4 8 0 15 -7 15 -16z m-6380 -3 c0 -5 -7 -14
-15 -21 -16 -14 -18 -10 -9 14 6 17 24 22 24 7z m6265 -1 c-3 -5 -13 -10 -21
-10 -8 0 -12 5 -9 10 3 6 13 10 21 10 8 0 12 -4 9 -10z m-6130 -10 c3 -5 1
-10 -4 -10 -6 0 -11 5 -11 10 0 6 2 10 4 10 3 0 8 -4 11 -10z m-385 -16 c0 -8
-4 -12 -10 -9 -5 3 -10 10 -10 16 0 5 5 9 10 9 6 0 10 -7 10 -16z m6877 -16
c-3 -8 -6 -5 -6 6 -1 11 2 17 5 13 3 -3 4 -12 1 -19z m-227 -3 c5 3 12 0 15
-6 5 -7 1 -10 -10 -7 -10 1 -20 9 -21 16 -1 7 0 8 3 2 2 -5 9 -8 13 -5z
m-6644 -21 c-9 -8 -16 -20 -16 -25 0 -5 -5 -9 -10 -9 -6 0 -3 11 6 25 9 14 21
25 26 25 5 0 2 -7 -6 -16z m514 -2 c0 -4 -19 -6 -42 -4 -71 5 -77 10 -15 11
31 0 57 -2 57 -7z m5877 1 c-20 -2 -52 -2 -70 0 -17 2 0 4 38 4 39 0 53 -2 32
-4z m438 -23 c3 -5 1 -10 -4 -10 -6 0 -11 5 -11 10 0 6 2 10 4 10 3 0 8 -4 11
-10z m42 -12 c-3 -8 -6 -5 -6 6 -1 11 2 17 5 13 3 -3 4 -12 1 -19z m-6577 -43
c14 -17 10 -47 -7 -52 -15 -5 -36 34 -29 53 7 18 20 18 36 -1z m-336 -43 c-8
-2 -14 -8 -14 -13 0 -5 -5 -9 -12 -9 -6 0 -3 9 7 20 10 11 15 20 11 20 -4 0
-4 5 0 12 5 8 10 6 14 -8 5 -12 3 -20 -6 -22z m6948 3 c-2 -14 -10 -25 -18
-25 -11 0 -11 5 -2 25 6 14 14 25 18 25 4 0 5 -11 2 -25z m-6822 -24 c0 -5 -7
-12 -16 -15 -14 -5 -15 -4 -4 9 14 17 20 19 20 6z m320 -27 c0 -14 -12 -19
-23 -8 -9 9 4 35 14 28 5 -3 9 -12 9 -20z m6377 6 c10 -13 8 -16 -6 -16 -13 0
-17 6 -13 19 2 10 5 16 6 15 1 -2 7 -10 13 -18z m-6797 0 c0 -5 -4 -10 -10
-10 -5 0 -10 5 -10 10 0 6 5 10 10 10 6 0 10 -4 10 -10z m351 -17 c-8 -15 -10
-15 -11 -2 0 17 10 32 18 25 2 -3 -1 -13 -7 -23z m189 1 c0 -14 -4 -23 -10
-19 -5 3 -10 15 -10 26 0 10 5 19 10 19 6 0 10 -12 10 -26z m6369 -3 c-15 -5
-22 6 -14 19 6 9 10 9 16 -1 5 -8 4 -15 -2 -18z m-6769 4 c0 -8 -7 -15 -15
-15 -9 0 -12 6 -9 15 4 8 10 15 15 15 5 0 9 -7 9 -15z m310 -11 c0 -8 -4 -14
-10 -14 -5 0 -10 9 -10 21 0 11 5 17 10 14 6 -3 10 -13 10 -21z m48 8 c2 -7
-3 -12 -12 -12 -9 0 -16 7 -16 16 0 17 22 14 28 -4z m5852 -2 c0 -11 -5 -20
-11 -20 -5 0 -7 5 -3 11 3 6 0 15 -7 20 -11 7 -10 9 4 9 10 0 17 -8 17 -20z
m210 16 c0 -3 -4 -8 -10 -11 -5 -3 -10 -1 -10 4 0 6 5 11 10 11 6 0 10 -2 10
-4z m70 -6 c0 -5 -4 -10 -10 -10 -5 0 -10 5 -10 10 0 6 5 10 10 10 6 0 10 -4
10 -10z m130 -10 c0 -5 -5 -10 -11 -10 -5 0 -7 5 -4 10 3 6 8 10 11 10 2 0 4
-4 4 -10z m-6790 -10 c0 -5 -5 -10 -11 -10 -5 0 -7 5 -4 10 3 6 8 10 11 10 2
0 4 -4 4 -10z m6950 -40 c0 -5 -5 -10 -11 -10 -5 0 -7 5 -4 10 3 6 8 10 11 10
2 0 4 -4 4 -10z m-6940 -20 c0 -5 -5 -10 -11 -10 -5 0 -7 5 -4 10 3 6 8 10 11
10 2 0 4 -4 4 -10z m6954 -49 c-6 -6 -24 19 -24 34 1 6 7 1 15 -9 8 -11 12
-22 9 -25z m-6584 19 c0 -5 -4 -10 -10 -10 -5 0 -10 5 -10 10 0 6 5 10 10 10
6 0 10 -4 10 -10z m6200 -6 c0 -8 -4 -12 -10 -9 -5 3 -10 10 -10 16 0 5 5 9
10 9 6 0 10 -7 10 -16z m-6535 -4 c3 -5 1 -10 -4 -10 -6 0 -11 5 -11 10 0 6 2
10 4 10 3 0 8 -4 11 -10z m6869 -5 c-4 -8 -10 -12 -15 -9 -11 6 -2 24 11 24 5
0 7 -7 4 -15z m-6434 -9 c0 -3 -4 -8 -10 -11 -5 -3 -10 -1 -10 4 0 6 5 11 10
11 6 0 10 -2 10 -4z m6460 -155 c0 -6 -4 -13 -10 -16 -5 -3 -10 1 -10 9 0 9 5
16 10 16 6 0 10 -4 10 -9z m-6400 -11 c0 -5 -4 -10 -10 -10 -5 0 -10 5 -10 10
0 6 5 10 10 10 6 0 10 -4 10 -10z m-55 -19 c3 -5 1 -12 -5 -16 -5 -3 -10 1
-10 9 0 18 6 21 15 7z m-197 -128 c-26 -2 -71 -2 -100 0 -29 2 -8 3 47 3 55 0
79 -1 53 -3z m192 -18 c0 -8 -4 -15 -10 -15 -5 0 -7 7 -4 15 4 8 8 15 10 15 2
0 4 -7 4 -15z m-315 -15 c3 -5 -3 -10 -14 -10 -12 0 -21 5 -21 10 0 6 6 10 14
10 8 0 18 -4 21 -10z m6697 -32 c-6 -6 -15 -8 -19 -4 -4 4 -1 11 7 16 8 5 17
7 19 4 3 -2 -1 -10 -7 -16z m-62 -208 c0 -5 -4 -10 -10 -10 -5 0 -10 5 -10 10
0 6 5 10 10 10 6 0 10 -4 10 -10z m-6640 -4 c0 -11 -19 -15 -25 -6 -3 5 1 10
9 10 9 0 16 -2 16 -4z m6600 -107 c0 -5 5 -7 11 -3 7 4 10 1 7 -7 -7 -20 -32
-17 -36 4 -2 9 1 17 7 17 6 0 11 -5 11 -11z m96 -35 c-3 -9 -6 -18 -6 -20 0
-2 -11 -4 -25 -4 -19 0 -23 4 -18 17 4 11 8 12 11 5 4 -13 23 -17 21 -4 -3 15
1 22 12 22 6 0 8 -7 5 -16z m-6336 -41 c0 -7 -4 -13 -9 -13 -5 0 -11 6 -14 13
-3 8 1 14 9 14 8 0 14 -6 14 -14z m50 -18 c0 -8 -4 -15 -10 -15 -5 0 -10 7
-10 15 0 8 5 15 10 15 6 0 10 -7 10 -15z m-303 -77 c-3 -8 -6 -5 -6 6 -1 11 2
17 5 13 3 -3 4 -12 1 -19z m43 -3 c0 -8 -4 -15 -10 -15 -5 0 -7 7 -4 15 4 8 8
15 10 15 2 0 4 -7 4 -15z m6400 -1 c0 -15 -9 -17 -34 -8 -20 8 -13 19 13 21
12 1 21 -4 21 -13z m80 -14 c0 -4 -10 -6 -22 -5 -30 3 -30 3 -24 14 7 10 46 3
46 -9z m-28 -175 c2 3 5 -2 5 -9 0 -11 -5 -13 -19 -5 -10 5 -18 17 -18 27 1
16 1 16 14 0 7 -10 15 -16 18 -13z m-6205 9 c-3 -3 -12 -4 -19 -1 -8 3 -5 6 6
6 11 1 17 -2 13 -5z m5823 -4 c0 -5 -4 -10 -10 -10 -5 0 -10 5 -10 10 0 6 5
10 10 10 6 0 10 -4 10 -10z m220 -89 c0 -16 -14 -20 -33 -10 -15 9 -17 13 -7
19 14 9 40 3 40 -9z m-6165 -1 c3 -5 1 -10 -4 -10 -6 0 -11 5 -11 10 0 6 2 10
4 10 3 0 8 -4 11 -10z m105 -46 c0 -2 -11 -4 -25 -4 -14 0 -25 4 -25 9 0 4 11
6 25 3 14 -2 25 -6 25 -8z m-75 -10 c-9 -9 -18 -14 -21 -11 -9 9 6 27 22 27
13 0 13 -2 -1 -16z m5940 6 c3 -5 1 -10 -4 -10 -6 0 -11 5 -11 10 0 6 2 10 4
10 3 0 8 -4 11 -10z m-6049 -73 c3 -3 3 -14 -1 -24 -6 -16 -8 -16 -16 5 -10
26 -26 29 -32 5 -3 -13 -5 -12 -6 5 -1 19 3 22 24 19 13 -1 27 -6 31 -10z
m6024 -266 c0 -6 -9 -9 -20 -8 -11 1 -20 5 -20 9 0 4 9 8 20 8 11 0 20 -4 20
-9z m40 5 c0 -11 -19 -15 -25 -6 -3 5 1 10 9 10 9 0 16 -2 16 -4z m-4187 -541
c7 -18 -6 -27 -27 -19 -17 7 -20 16 -9 27 11 12 31 8 36 -8z m2067 -20 c0 -14
4 -25 9 -25 15 0 19 -39 5 -51 -8 -6 -14 -8 -14 -4 0 4 -7 2 -15 -5 -15 -13
-35 -6 -35 13 0 7 4 6 10 -3 8 -13 10 -13 14 0 3 8 5 22 4 30 -3 36 3 70 12
70 6 0 10 -11 10 -25z m360 -7 c0 7 6 12 14 12 9 0 14 -9 13 -20 -1 -11 -5
-20 -10 -20 -20 0 -47 22 -47 38 1 15 2 15 15 -2 8 -11 15 -14 15 -8z m-413
-30 c-3 -7 -5 -2 -5 12 0 14 2 19 5 13 2 -7 2 -19 0 -25z m493 -63 c0 -5 -11
3 -24 20 -13 16 -22 34 -19 38 6 9 43 -41 43 -58z m-83 25 c39 -23 59 -53 67
-100 6 -33 6 -33 -14 11 -20 43 -62 79 -93 79 -7 0 -33 -14 -55 -30 -53 -38
-54 -23 -2 24 46 42 54 43 97 16z m-2317 -26 c0 -8 -5 -12 -10 -9 -6 4 -8 11
-5 16 9 14 15 11 15 -7z m60 12 c0 -2 -7 -6 -15 -10 -8 -3 -15 -1 -15 4 0 6 7
10 15 10 8 0 15 -2 15 -4z m144 -25 c-14 -13 -54 -23 -54 -14 0 10 52 32 59
26 3 -2 0 -7 -5 -12z m1796 -1 c0 -5 -4 -10 -10 -10 -5 0 -10 5 -10 10 0 6 5
10 10 10 6 0 10 -4 10 -10z m-1965 -30 c3 -5 1 -10 -4 -10 -6 0 -11 5 -11 10
0 6 2 10 4 10 3 0 8 -4 11 -10z m989 -14 c-3 -9 -10 -13 -15 -10 -5 3 -3 11 4
19 15 16 19 13 11 -9z m1041 14 c3 -5 1 -10 -4 -10 -6 0 -11 5 -11 10 0 6 2
10 4 10 3 0 8 -4 11 -10z m-335 -21 c0 -5 -4 -8 -9 -5 -5 4 -11 0 -14 -6 -2
-7 -8 -9 -13 -5 -5 4 -2 12 6 17 20 13 30 12 30 -1z m-1650 -53 c0 -2 -7 -9
-15 -16 -13 -11 -14 -10 -9 4 5 14 24 23 24 12z m1600 -21 c0 -8 19 -23 43
-33 51 -23 65 -39 72 -83 3 -19 2 -27 -2 -19 -20 41 -41 60 -57 54 -10 -4 -16
-1 -16 9 0 20 -45 30 -73 16 -22 -12 -22 -11 2 14 14 15 21 33 18 41 -4 9 -2
16 3 16 6 0 10 -7 10 -15z m-1570 1 c0 -3 -4 -8 -10 -11 -5 -3 -10 -1 -10 4 0
6 5 11 10 11 6 0 10 -2 10 -4z m223 -11 c-3 -9 -8 -14 -10 -11 -3 3 -2 9 2 15
9 16 15 13 8 -4z m497 -6 c0 -5 -4 -9 -10 -9 -5 0 -10 7 -10 16 0 8 5 12 10 9
6 -3 10 -10 10 -16z m-1100 -9 c0 -11 -3 -21 -7 -21 -37 -6 -53 -5 -50 5 2 6
14 9 27 8 17 -3 21 0 17 12 -4 9 -2 16 3 16 6 0 10 -9 10 -20z m1130 16 c0 -3
-4 -8 -10 -11 -5 -3 -10 -1 -10 4 0 6 5 11 10 11 6 0 10 -2 10 -4z m1394 -4
c3 -5 -1 -9 -9 -9 -8 0 -15 4 -15 9 0 4 4 8 9 8 6 0 12 -4 15 -8z m-2104 -23
c0 -4 -7 -6 -15 -3 -8 4 -15 10 -15 15 0 4 7 6 15 3 8 -4 15 -10 15 -15z
m1767 -6 c0 -16 -1 -20 -4 -10 -2 9 -9 17 -14 17 -5 0 -9 5 -9 10 0 24 26 7
27 -17z m-1842 7 c3 -5 1 -10 -4 -10 -6 0 -11 5 -11 10 0 6 2 10 4 10 3 0 8
-4 11 -10z m725 -9 c0 -5 -7 -11 -15 -15 -15 -5 -20 5 -8 17 9 10 23 9 23 -2z
m1175 -1 c3 -5 1 -10 -4 -10 -6 0 -11 5 -11 10 0 6 2 10 4 10 3 0 8 -4 11 -10z
m71 -27 c-4 -4 -11 -1 -16 7 -16 25 -11 35 7 17 9 -9 13 -20 9 -24z m257 20
c-3 -7 -9 -13 -15 -13 -5 0 -7 -4 -3 -10 3 -5 12 -7 20 -3 8 3 15 0 15 -6 0
-12 -20 -14 -36 -3 -17 11 -12 48 7 48 10 0 15 -6 12 -13z m-2193 -14 c0 -6
-4 -7 -10 -4 -5 3 -10 11 -10 16 0 6 5 7 10 4 6 -3 10 -11 10 -16z m2150 11
c0 -5 -4 -10 -10 -10 -5 0 -10 5 -10 10 0 6 5 10 10 10 6 0 10 -4 10 -10z
m-2210 -10 c0 -5 -5 -10 -11 -10 -6 0 -9 -7 -5 -15 3 -8 1 -15 -4 -15 -11 0
-13 11 -4 34 7 18 24 22 24 6z m30 -21 c0 -5 -4 -9 -10 -9 -5 0 -10 7 -10 16
0 8 5 12 10 9 6 -3 10 -10 10 -16z m2030 11 c0 -5 -4 -10 -10 -10 -5 0 -10 5
-10 10 0 6 5 10 10 10 6 0 10 -4 10 -10z m415 1 c3 -5 1 -12 -5 -16 -5 -3 -10
1 -10 9 0 18 6 21 15 7z m-85 -16 c0 -8 -6 -15 -12 -16 -10 0 -10 -2 0 -6 6
-2 12 -9 12 -14 0 -6 -4 -7 -10 -4 -13 8 -13 -8 1 -22 8 -8 8 -13 0 -17 -6 -4
-12 -1 -12 6 -1 7 -3 24 -5 38 -1 14 -1 31 1 38 6 17 25 15 25 -3z m-2200 -21
c0 -8 -4 -12 -10 -9 -5 3 -10 10 -10 16 0 5 5 9 10 9 6 0 10 -7 10 -16z m32
-12 c-7 -2 -12 -8 -12 -13 0 -6 4 -8 9 -5 10 7 25 -24 16 -33 -3 -3 -10 1 -15
9 -7 11 -11 11 -24 1 -11 -9 -16 -10 -16 -2 0 6 3 11 8 11 4 0 14 14 21 32 9
21 16 27 19 18 3 -8 0 -16 -6 -18z m2003 18 c3 -5 1 -10 -4 -10 -6 0 -11 5
-11 10 0 6 2 10 4 10 3 0 8 -4 11 -10z m35 -30 c-11 -11 -26 -20 -32 -20 -8 0
-5 7 6 15 11 8 16 15 10 15 -5 0 -2 4 6 9 24 16 31 2 10 -19z m-2090 -11 c0
-6 -4 -7 -10 -4 -5 3 -10 11 -10 16 0 6 5 7 10 4 6 -3 10 -11 10 -16z m90 6
c0 -8 -2 -15 -4 -15 -2 0 -6 7 -10 15 -3 8 -1 15 4 15 6 0 10 -7 10 -15z m167
-17 c-3 -7 -5 -2 -5 12 0 14 2 19 5 13 2 -7 2 -19 0 -25z m28 12 c3 -5 1 -10
-4 -10 -6 0 -11 5 -11 10 0 6 2 10 4 10 3 0 8 -4 11 -10z m1245 0 c0 -5 -5
-10 -11 -10 -5 0 -7 5 -4 10 3 6 8 10 11 10 2 0 4 -4 4 -10z m345 0 c3 -5 -1
-10 -9 -10 -9 0 -16 5 -16 10 0 6 4 10 9 10 6 0 13 -4 16 -10z m242 -9 c0 -11
-6 -19 -12 -18 -5 1 -9 -4 -7 -12 6 -27 -9 -51 -31 -50 l-22 0 23 9 c23 10 29
25 13 34 -5 4 0 17 12 31 27 30 26 30 24 6z m-2452 -1 c3 -5 -1 -10 -9 -10 -9
0 -16 5 -16 10 0 6 4 10 9 10 6 0 13 -4 16 -10z m575 0 c0 -5 -2 -10 -4 -10
-3 0 -8 5 -11 10 -3 6 -1 10 4 10 6 0 11 -4 11 -10z m697 -15 c-4 -8 -11 -15
-17 -15 -7 0 -7 6 0 21 13 23 26 19 17 -6z m-1317 -5 c0 -11 -4 -20 -9 -20 -6
0 -9 9 -8 20 1 11 5 20 9 20 4 0 8 -9 8 -20z m350 10 c0 -5 -2 -10 -4 -10 -3
0 -8 5 -11 10 -3 6 -1 10 4 10 6 0 11 -4 11 -10z m237 4 c-3 -3 -12 -4 -19 -1
-8 3 -5 6 6 6 11 1 17 -2 13 -5z m-262 -14 c3 -5 1 -10 -4 -10 -6 0 -11 5 -11
10 0 6 2 10 4 10 3 0 8 -4 11 -10z m1516 -14 c5 3 9 -2 9 -10 0 -9 -4 -16 -9
-16 -13 0 -32 26 -24 34 4 4 9 2 11 -3 2 -6 8 -9 13 -5z m-1029 -18 c-7 -7
-12 -8 -12 -2 0 14 12 26 19 19 2 -3 -1 -11 -7 -17z m538 12 c0 -5 -2 -10 -4
-10 -3 0 -8 5 -11 10 -3 6 -1 10 4 10 6 0 11 -4 11 -10z m-1172 -18 c26 -14
85 -82 70 -82 -1 0 -25 11 -52 25 -27 14 -57 25 -65 25 -38 0 -93 -23 -116
-48 -33 -36 -41 -23 -16 27 35 68 110 90 179 53z m99 3 c8 -9 13 -19 10 -22
-6 -5 -37 21 -37 31 0 10 11 6 27 -9z m405 -14 c40 -26 68 -51 55 -51 -3 0
-21 7 -40 15 -48 20 -130 19 -170 -1 -18 -10 -51 -37 -74 -61 -28 -29 -44 -39
-49 -31 -4 6 -2 14 4 16 7 2 12 10 12 18 0 9 5 12 12 8 8 -5 9 -2 5 9 -3 10
-2 17 3 17 5 0 7 6 4 13 -7 19 17 47 45 52 14 2 29 9 35 15 5 5 33 10 61 10
39 0 62 -7 97 -29z m584 2 c-10 -10 -19 5 -10 18 6 11 8 11 12 0 2 -7 1 -15
-2 -18z m1259 17 c3 -5 1 -10 -6 -10 -8 0 -7 -5 2 -17 13 -15 12 -15 -8 -4
-14 7 -20 17 -17 26 7 17 20 19 29 5z m-1210 -10 c3 -5 1 -10 -4 -10 -6 0 -11
5 -11 10 0 6 2 10 4 10 3 0 8 -4 11 -10z m-339 -108 c138 -69 318 -40 432 71
62 60 51 30 -12 -35 -149 -153 -348 -155 -496 -5 -72 72 -80 99 -11 34 26 -25
66 -54 87 -65z m788 96 c-4 -6 1 -17 11 -25 11 -7 14 -13 8 -13 -16 0 -36 28
-28 40 3 5 8 10 11 10 3 0 2 -5 -2 -12z m751 -28 c10 -11 15 -23 12 -27 -4 -3
-7 -1 -7 5 0 6 -9 14 -20 17 -11 3 -20 11 -20 16 0 15 16 10 35 -11z m-1685
-6 c0 -8 -5 -12 -10 -9 -6 4 -8 11 -5 16 9 14 15 11 15 -7z m120 6 c0 -5 -4
-10 -10 -10 -5 0 -10 5 -10 10 0 6 5 10 10 10 6 0 10 -4 10 -10z m1517 4 c-3
-3 -12 -4 -19 -1 -8 3 -5 6 6 6 11 1 17 -2 13 -5z m-1917 -69 c0 -9 -6 -12
-15 -9 -8 4 -15 10 -15 15 0 5 7 9 15 9 8 0 15 -7 15 -15z m901 -22 c13 -16
12 -17 -3 -4 -10 7 -18 15 -18 17 0 8 8 3 21 -13z m-1661 -19 c0 -8 -5 -12
-10 -9 -6 4 -8 11 -5 16 9 14 15 11 15 -7z m753 -3 c-16 -20 -33 -19 -33 0 0
6 4 8 9 4 5 -3 12 -1 16 5 3 5 10 10 15 10 6 0 2 -9 -7 -19z m-808 -1 c3 -5 1
-10 -4 -10 -6 0 -11 5 -11 10 0 6 2 10 4 10 3 0 8 -4 11 -10z m105 0 c0 -5 -5
-10 -11 -10 -5 0 -7 5 -4 10 3 6 8 10 11 10 2 0 4 -4 4 -10z m1683 -29 c21
-13 36 -26 33 -28 -5 -5 -53 24 -76 46 -18 18 -6 13 43 -18z m-953 -11 c0 -5
-4 -10 -10 -10 -5 0 -10 5 -10 10 0 6 5 10 10 10 6 0 10 -4 10 -10z m-670 -4
c0 -3 -4 -8 -10 -11 -5 -3 -10 -1 -10 4 0 6 5 11 10 11 6 0 10 -2 10 -4z m320
-6 c0 -5 -2 -10 -4 -10 -3 0 -8 5 -11 10 -3 6 -1 10 4 10 6 0 11 -4 11 -10z
m-380 -10 c0 -5 -2 -10 -4 -10 -3 0 -8 5 -11 10 -3 6 -1 10 4 10 6 0 11 -4 11
-10z m2930 -35 c0 -9 -6 -12 -16 -8 -13 5 -13 7 -2 14 17 11 18 11 18 -6z
m-2605 -16 c-4 -5 1 -9 10 -9 9 0 13 -5 10 -10 -5 -8 -11 -7 -21 1 -16 13 -19
44 -4 34 6 -4 8 -11 5 -16z m64 -11 c12 4 12 3 0 -11 -13 -14 -16 -14 -31 6
-9 12 -14 26 -11 31 3 5 11 0 17 -11 6 -11 17 -18 25 -15z m770 -52 c89 -20
110 -20 128 2 10 12 16 14 19 5 9 -22 22 -14 29 15 4 18 12 28 26 29 15 1 19
-3 14 -18 -5 -14 -3 -17 9 -13 11 4 16 1 16 -10 0 -13 6 -15 28 -10 36 9 80
31 119 60 52 39 46 28 -20 -38 -68 -67 -173 -121 -188 -97 -9 16 -39 21 -39 7
0 -6 7 -8 15 -4 8 3 15 2 15 -3 0 -13 -36 -20 -73 -15 -47 7 -148 36 -143 41
2 2 28 -3 57 -11 60 -18 119 -21 119 -6 0 5 -3 9 -7 8 -5 -1 -28 4 -53 11 -98
26 -158 54 -200 91 l-45 40 52 -34 c31 -20 81 -41 122 -50z m-369 54 c0 -5 -4
-10 -10 -10 -5 0 -10 5 -10 10 0 6 5 10 10 10 6 0 10 -4 10 -10z m1905 -30 c3
-5 -1 -10 -9 -10 -9 0 -16 5 -16 10 0 6 4 10 9 10 6 0 13 -4 16 -10z m-924
-13 c-1 -12 -15 -9 -19 4 -3 6 1 10 8 8 6 -3 11 -8 11 -12z m-1091 -6 c0 -14
-18 -23 -31 -15 -8 4 -7 9 2 15 18 11 29 11 29 0z m-86 -16 c-4 -8 -8 -15 -10
-15 -2 0 -4 7 -4 15 0 8 4 15 10 15 5 0 7 -7 4 -15z m1893 -7 c-3 -8 -6 -5 -6
6 -1 11 2 17 5 13 3 -3 4 -12 1 -19z m-1412 -16 c-3 -3 -11 0 -18 7 -9 10 -8
11 6 5 10 -3 15 -9 12 -12z m1480 -22 c3 -5 1 -10 -4 -10 -6 0 -11 5 -11 10 0
6 2 10 4 10 3 0 8 -4 11 -10z m-55 -15 c0 -8 -4 -15 -10 -15 -5 0 -10 7 -10
15 0 8 5 15 10 15 6 0 10 -7 10 -15z m-696 -44 c-2 -3 -12 3 -22 13 -16 17
-16 18 5 5 12 -7 20 -15 17 -18z m-961 -2 c-4 -15 -9 -17 -17 -9 -8 8 -7 13 4
20 8 5 16 10 17 10 0 0 -1 -9 -4 -21z m457 -29 c0 -5 -4 -10 -9 -10 -6 0 -13
5 -16 10 -3 6 1 10 9 10 9 0 16 -4 16 -10z m104 -23 c-8 -21 -23 -13 -19 11 2
9 4 19 4 22 1 2 6 -1 11 -6 6 -6 8 -18 4 -27z"/>
<path d="M2421 5394 c-42 -18 -91 -84 -91 -122 0 -4 1247 -7 2770 -7 2661 0
2770 1 2770 18 0 28 -26 72 -61 101 l-32 27 -2665 -3 c-1942 -2 -2672 -6
-2691 -14z"/>
<path d="M2399 5232 c-15 -2 -37 -14 -50 -28 l-24 -26 0 -1296 0 -1297 23 -85
c58 -218 201 -409 368 -491 66 -33 73 -34 184 -34 106 1 122 4 196 33 101 40
200 109 279 193 74 80 279 402 464 731 l32 58 1229 0 1228 0 53 -97 c65 -122
229 -393 324 -538 115 -175 246 -287 411 -352 61 -24 83 -27 189 -28 l120 0
75 40 c92 49 209 163 263 255 53 93 94 227 107 356 8 75 10 495 8 1331 l-3
1223 -25 25 -26 25 -2699 3 c-1485 1 -2712 1 -2726 -1z m391 -41 c0 -14 -10
-20 -42 -25 -46 -7 -305 1 -300 9 1 3 2 9 2 15 0 5 56 11 133 13 72 1 149 4
170 5 30 2 37 -1 37 -17z m0 -91 c0 -19 -7 -20 -169 -20 -163 0 -192 5 -176
30 4 6 73 10 176 10 162 0 169 -1 169 -20z m3370 -460 l0 -440 -1055 0 -1055
0 0 440 0 440 1055 0 1055 0 0 -440z m980 256 c131 -66 142 -255 21 -341 -38
-27 -51 -30 -116 -30 -67 0 -76 3 -112 31 -62 50 -84 98 -80 171 2 50 9 71 33
105 58 84 164 110 254 64z m-3790 -319 c5 -137 5 -139 33 -163 27 -23 35 -24
158 -24 l129 0 0 -184 0 -184 -136 -4 c-135 -3 -136 -3 -160 -31 -23 -27 -24
-35 -24 -163 l0 -134 -175 0 -175 0 0 134 c0 128 -1 136 -24 163 -24 28 -25
28 -160 31 l-136 4 0 184 0 184 131 0 131 0 29 29 29 29 0 130 c0 71 3 131 6
135 3 3 81 5 173 4 l166 -2 5 -138z m4315 -165 c56 -39 86 -98 86 -167 0 -102
-60 -175 -163 -197 -52 -11 -59 -10 -112 16 -76 37 -109 86 -114 170 -3 49 0
71 17 104 54 106 190 141 286 74z m-1035 -1 c89 -45 127 -177 78 -271 -48 -94
-167 -136 -255 -92 -73 38 -123 115 -123 192 0 68 78 173 138 186 15 3 32 7
37 10 19 7 90 -7 125 -25z m-2270 -441 c132 -25 237 -106 297 -227 34 -68 38
-85 41 -172 3 -79 0 -107 -18 -160 -98 -292 -452 -381 -675 -170 -66 62 -100
117 -120 195 -41 157 8 322 125 427 104 94 225 131 350 107z m1621 0 c224 -42
374 -256 339 -483 -6 -40 -22 -96 -35 -125 -34 -74 -115 -156 -194 -195 -57
-28 -78 -32 -159 -35 -76 -3 -104 0 -156 18 -290 103 -375 455 -168 691 48 53
145 108 222 125 71 16 86 16 151 4z m1137 -36 c139 -58 174 -225 68 -330 -62
-63 -138 -79 -211 -45 -53 24 -83 55 -106 105 -26 57 -24 112 7 174 48 96 147
136 242 96z m-2148 -277 c0 -29 -6 -36 -78 -80 -43 -26 -81 -47 -85 -47 -4 0
-7 13 -7 29 0 25 10 36 78 79 42 28 80 51 85 51 4 1 7 -14 7 -32z m310 1 c0
-30 -7 -37 -75 -80 -41 -27 -77 -48 -80 -48 -3 0 -5 13 -5 29 0 24 11 35 78
80 42 28 78 51 80 51 1 0 2 -15 2 -32z"/>
<path d="M4090 4635 l0 -385 1015 0 1015 0 0 385 0 385 -1015 0 -1015 0 0
-385z"/>
<path d="M7035 4893 c-52 -9 -66 -15 -95 -39 -42 -36 -62 -79 -62 -134 0 -56
19 -97 67 -139 31 -27 43 -31 93 -31 77 0 129 30 160 90 12 24 22 60 22 80 0
44 -36 118 -71 143 -28 20 -83 35 -114 30z m-35 -78 c0 -2 -11 -21 -25 -41
-14 -20 -25 -45 -25 -55 0 -9 11 -31 25 -47 29 -34 31 -42 11 -42 -8 0 -24 12
-35 26 -30 38 -28 94 5 133 23 27 44 40 44 26z"/>
<path d="M3029 4583 c-1 -193 -20 -215 -202 -223 l-122 -5 0 -155 0 -155 126
-5 c109 -4 130 -8 149 -25 39 -34 50 -77 50 -190 l0 -105 145 0 145 0 0 98 c0
119 12 163 51 196 29 25 36 26 150 26 l119 0 0 159 0 159 -117 4 c-128 4 -149
11 -179 62 -14 24 -19 58 -22 149 l-4 117 -144 0 -144 0 -1 -107z"/>
<path d="M7483 4401 c-105 -49 -131 -186 -52 -276 125 -142 370 28 280 195
-45 85 -144 120 -228 81z m-2 -101 c-19 -35 -21 -45 -12 -72 6 -18 19 -40 28
-50 9 -10 13 -21 9 -26 -4 -4 -21 8 -37 26 -39 43 -40 98 -3 142 35 41 43 30
15 -20z"/>
<path d="M6470 4399 c-59 -24 -110 -101 -110 -166 0 -47 36 -120 71 -146 31
-22 94 -32 143 -23 79 15 146 118 130 201 -19 105 -138 172 -234 134z m-9
-113 c-27 -43 -26 -65 4 -110 26 -38 13 -52 -18 -18 -43 48 -41 112 5 162 30
32 35 9 9 -34z"/>
<path d="M4189 3946 c-105 -28 -206 -114 -262 -220 -31 -58 -32 -66 -32 -176
0 -104 3 -121 27 -172 118 -252 450 -313 645 -118 160 160 162 417 4 579 -99
102 -248 143 -382 107z m191 -137 c91 -41 150 -129 150 -225 0 -130 -80 -230
-204 -256 -167 -35 -321 126 -286 298 32 154 202 246 340 183z"/>
<path d="M4212 3787 c-128 -47 -187 -204 -118 -321 72 -124 219 -151 325 -60
81 70 103 172 57 270 -47 100 -160 148 -264 111z m18 -67 c0 -6 -12 -20 -26
-33 -62 -54 -72 -131 -24 -192 52 -66 33 -78 -24 -15 -31 35 -36 47 -36 91 0
59 17 96 60 133 33 27 50 33 50 16z"/>
<path d="M5810 3945 c-78 -22 -130 -56 -194 -126 -68 -75 -97 -146 -104 -250
-13 -212 128 -387 341 -420 174 -27 342 65 420 229 30 62 32 75 32 172 0 97
-2 110 -32 172 -84 178 -282 273 -463 223z m182 -131 c95 -32 161 -130 162
-239 0 -113 -73 -210 -182 -241 -70 -21 -124 -12 -193 29 -44 26 -60 44 -87
97 -31 60 -34 71 -29 133 11 169 170 276 329 221z"/>
<path d="M5839 3786 c-158 -56 -200 -248 -80 -367 59 -59 112 -76 188 -59 133
29 211 162 169 288 -38 114 -166 178 -277 138z m-17 -109 c-62 -66 -68 -112
-21 -176 36 -51 34 -71 -4 -41 -80 63 -72 197 16 250 43 26 48 7 9 -33z"/>
<path d="M6980 3909 c-130 -52 -132 -271 -4 -325 87 -36 200 12 233 99 30 80
-9 186 -82 220 -38 19 -108 21 -147 6z m2 -98 c-35 -47 -36 -72 -7 -115 14
-21 24 -40 22 -42 -9 -10 -34 9 -51 37 -25 43 -16 106 20 137 34 30 44 20 16
-17z"/>
<path d="M1970 5005 c0 -5 5 -17 10 -25 5 -8 10 -10 10 -5 0 6 -5 17 -10 25
-5 8 -10 11 -10 5z"/>
<path d="M5132 1904 c-32 -14 -83 -54 -69 -54 10 0 81 41 97 56 17 17 15 17
-28 -2z"/>
<path d="M1222 7190 l-23 -30 95 0 c85 0 98 2 123 24 l27 24 -49 5 c-28 3 -73
6 -101 6 -45 1 -53 -2 -72 -29z"/>
<path d="M1435 7190 l-29 -30 73 0 72 0 -3 28 c-3 24 -8 27 -43 30 -34 2 -45
-2 -70 -28z"/>
<path d="M1593 7212 c-17 -3 -23 -10 -23 -28 l0 -24 160 0 160 0 0 28 0 28
-137 -1 c-76 0 -148 -1 -160 -3z"/>
<path d="M1943 7212 c-38 -3 -43 -6 -43 -28 l0 -24 116 0 115 0 -3 25 c-3 25
-6 26 -73 28 -38 1 -89 1 -112 -1z"/>
<path d="M8013 7037 c-30 -13 -31 -53 -1 -60 12 -4 27 -2 33 3 6 5 23 7 38 6
15 -2 30 1 34 7 4 6 1 7 -7 2 -10 -6 -12 -4 -7 8 4 11 2 14 -9 10 -8 -3 -21 3
-29 13 -11 15 -15 16 -15 4 -1 -12 -3 -12 -8 1 -6 13 -12 14 -29 6z"/>
<path d="M8200 6810 c0 -5 5 -10 10 -10 6 0 10 5 10 10 0 6 -4 10 -10 10 -5 0
-10 -4 -10 -10z"/>
<path d="M8386 3662 c-2 -4 0 -14 5 -22 8 -13 10 -13 19 0 5 8 10 18 10 23 0
10 -28 9 -34 -1z"/>
<path d="M6557 2305 c-4 -8 -2 -17 3 -20 6 -4 10 3 10 14 0 25 -6 27 -13 6z"/>
<path d="M6560 2152 c0 -4 9 -8 19 -8 11 0 17 4 15 8 -3 4 -12 8 -20 8 -8 0
-14 -4 -14 -8z"/>
<path d="M6640 2124 c0 -8 5 -12 10 -9 6 4 8 11 5 16 -9 14 -15 11 -15 -7z"/>
<path d="M5255 1685 c-16 -7 -41 -17 -55 -23 -23 -9 -22 -10 13 -9 20 1 37 4
37 7 0 4 20 4 45 0 55 -8 67 3 26 25 -17 8 -31 15 -33 14 -2 0 -16 -6 -33 -14z"/>
</g>
</svg>
